<svg xmlns="http://www.w3.org/2000/svg" xmlns:xlink="http://www.w3.org/1999/xlink" x="0px" y="0px" width="271" height="271" viewBox="0 0 271 271"><defs><style>.cls-1{fill:url(#linear-gradient);}.cls-2{fill:url(#linear-gradient-2);}.cls-3{fill:url(#linear-gradient-3);}</style><linearGradient id="linear-gradient" x1="135.5" y1="251.49" x2="135.5" y2="522.49" gradientTransform="matrix(1, 0, 0, -1, 0, 522.49)" gradientUnits="userSpaceOnUse"><stop offset="0" stop-color="#5558ff"/><stop offset="1" stop-color="#00c0ff"/></linearGradient><linearGradient id="linear-gradient-2" x1="110.93" y1="140.93" x2="160.84" y2="140.93" gradientTransform="matrix(1, 0, 0, 1, 0, 0)" xlink:href="#linear-gradient"/><linearGradient id="linear-gradient-3" x1="80.11" y1="140.92" x2="191.66" y2="140.92" gradientTransform="matrix(1, 0, 0, 1, 0, 0)" xlink:href="#linear-gradient"/></defs><title>Asset 1</title><g id="Layer_2" data-name="Layer 2"><g id="Layer_1-2" data-name="Layer 1"><path class="cls-1" d="M241.45,220.24A137.87,137.87,0,0,0,271,135C271,60.56,210,0,135,0,60.56,0,0,60.56,0,135c0,75,60.56,136,135,136H256a15,15,0,0,0,10.61-25.61Zm-31.21,11.22,9.54,9.54H135C77.1,241,30,193.45,30,135A105.12,105.12,0,0,1,135,30c58.45,0,106,47.1,106,105,0,28.27-11.21,55.7-30.75,75.25A15,15,0,0,0,210.25,231.46Z"/><g id="surface1"><path class="cls-2" d="M135.88,115.51a25.42,25.42,0,1,0,25,25.41A25.22,25.22,0,0,0,135.88,115.51Zm14.82,20.63-17.88,18.21a3.79,3.79,0,0,1-5.44,0l-6.83-7a4,4,0,0,1,0-5.53,3.79,3.79,0,0,1,5.43,0L130.1,146l15.16-15.44a3.79,3.79,0,0,1,5.43,0A4,4,0,0,1,150.7,136.14Z"/><path class="cls-3" d="M191.53,110.42v-.1c-.06-1.28-.09-2.64-.12-4.14a14,14,0,0,0-13.07-13.85c-15.06-.86-26.71-5.86-36.66-15.74l-.08-.08a8.27,8.27,0,0,0-11.39,0l-.08.08c-10,9.88-21.6,14.88-36.66,15.74a14,14,0,0,0-13.07,13.85c0,1.5-.06,2.85-.12,4.14v.24c-.29,15.64-.66,35.1,5.74,52.77a67.32,67.32,0,0,0,15.82,25.1c8,7.91,18.37,14.18,31,18.65a9.44,9.44,0,0,0,1.27.35,9.21,9.21,0,0,0,3.69,0,9.45,9.45,0,0,0,1.27-.35c12.58-4.48,23-10.76,30.93-18.66a67.42,67.42,0,0,0,15.82-25.11C192.18,145.59,191.82,126.09,191.53,110.42Zm-55.64,63.75c-18,0-32.64-14.91-32.64-33.24s14.64-33.24,32.64-33.24,32.64,14.91,32.64,33.24S153.88,174.17,135.88,174.17Z"/></g></g></g></svg>